<svg width="48" height="48" viewBox="0 0 48 48" fill="none" xmlns="http://www.w3.org/2000/svg">
<circle cx="29.5" cy="29.5" r="16.5" fill="#F8D249"/>
<path fill-rule="evenodd" clip-rule="evenodd" d="M30.8024 25.4285L11.4033 6.02942C9.91932 4.54543 7.5133 4.54543 6.0293 6.02942C4.54531 7.51341 4.54531 9.91944 6.0293 11.4034L25.4284 30.8025L33.9572 33.9573L30.8024 25.4285ZM4.47367 4.47379C2.13052 6.81693 2.13052 10.6159 4.47367 12.9591L24.1609 32.6463C24.1955 32.6809 24.237 32.7075 24.2828 32.7244L35.6409 36.9258C36.4421 37.2222 37.2221 36.4423 36.9257 35.641L32.7243 24.2829C32.7074 24.2372 32.6807 24.1956 32.6462 24.1611L12.9589 4.47379C10.6158 2.13064 6.81681 2.13064 4.47367 4.47379Z" fill="#333333"/>
<path fill-rule="evenodd" clip-rule="evenodd" d="M16.2632 7.77793L7.77789 16.2632L6.22225 14.7076L14.7075 6.2223L16.2632 7.77793Z" fill="#333333"/>
<path fill-rule="evenodd" clip-rule="evenodd" d="M32.2632 23.7779L23.7779 32.2632L22.2223 30.7075L30.7076 22.2223L32.2632 23.7779Z" fill="#333333"/>
<path fill-rule="evenodd" clip-rule="evenodd" d="M27.0004 2.95883C27.8205 2.13873 29.1501 2.13872 29.9702 2.95883L37.0422 10.0308C37.8615 10.8502 37.8624 12.1784 37.044 12.9988L31.7788 18.277C31.3498 18.7071 30.6533 18.7079 30.2232 18.2789C29.7931 17.8499 29.7922 17.1534 30.2213 16.7233L35.4159 11.5158L28.4853 4.58517L20.7778 12.2926L19.2222 10.737L27.0004 2.95883ZM11.9675 34.9623L19.2223 27.7075L20.7779 29.2631L13.4524 36.5886C12.6323 37.4087 11.3027 37.4087 10.4826 36.5886L3.4115 29.5175C2.5914 28.6974 2.5914 27.3678 3.4115 26.5477L10.7369 19.2223L12.2925 20.7779L5.03784 28.0326L11.9675 34.9623Z" fill="#333333"/>
<path fill-rule="evenodd" clip-rule="evenodd" d="M27.0004 10.1713L24.1719 7.34289L25.7276 5.78725L28.556 8.61568C28.9856 9.04526 28.9856 9.74174 28.556 10.1713C28.1264 10.6009 27.43 10.6009 27.0004 10.1713Z" fill="#333333"/>
<path fill-rule="evenodd" clip-rule="evenodd" d="M25.5862 14.414L21.3435 10.1713L22.8992 8.61568L27.1418 12.8583C27.5714 13.2879 27.5714 13.9844 27.1418 14.414C26.7122 14.8435 26.0157 14.8435 25.5862 14.414Z" fill="#333333"/>
<path fill-rule="evenodd" clip-rule="evenodd" d="M8.6156 28.5561L5.78717 25.7277L7.34281 24.172L10.1712 27.0005C10.6008 27.43 10.6008 28.1265 10.1712 28.5561C9.74166 28.9857 9.04518 28.9857 8.6156 28.5561Z" fill="#333333"/>
<path fill-rule="evenodd" clip-rule="evenodd" d="M12.8582 27.1419L8.6156 22.8992L10.1712 21.3436L14.4139 25.5862C14.8435 26.0158 14.8435 26.7123 14.4139 27.1419C13.9843 27.5715 13.2878 27.5715 12.8582 27.1419Z" fill="#333333"/>
</svg>
