<svg width="48" height="48" viewBox="0 0 48 48" fill="none" xmlns="http://www.w3.org/2000/svg">
<circle cx="29.5" cy="18.5" r="16.5" fill="#F8D249"/>
<path fill-rule="evenodd" clip-rule="evenodd" d="M12.2 29.2V38.8H15.8V29.2H12.2ZM11 27C10.4477 27 10 27.4477 10 28V40C10 40.5523 10.4477 41 11 41H17C17.5523 41 18 40.5523 18 40V28C18 27.4477 17.5523 27 17 27H11Z" fill="#333333"/>
<path fill-rule="evenodd" clip-rule="evenodd" d="M22.2 26.2V38.8H25.8V26.2H22.2ZM21 24C20.4477 24 20 24.4477 20 25V40C20 40.5523 20.4477 41 21 41H27C27.5523 41 28 40.5523 28 40V25C28 24.4477 27.5523 24 27 24H21Z" fill="#333333"/>
<path fill-rule="evenodd" clip-rule="evenodd" d="M32.2 32.2V38.8H35.8V32.2H32.2ZM31 30C30.4477 30 30 30.4477 30 31V40C30 40.5523 30.4477 41 31 41H37C37.5523 41 38 40.5523 38 40V31C38 30.4477 37.5523 30 37 30H31Z" fill="#333333"/>
<path fill-rule="evenodd" clip-rule="evenodd" d="M6.9999 18.8999C7.60741 18.8999 8.0999 19.3924 8.0999 19.9999V42.8999H36.9999C37.6074 42.8999 38.0999 43.3924 38.0999 43.9999C38.0999 44.6074 37.6074 45.0999 36.9999 45.0999H6.9999C6.39239 45.0999 5.8999 44.6074 5.8999 43.9999V19.9999C5.8999 19.3924 6.39239 18.8999 6.9999 18.8999Z" fill="#333333"/>
<path fill-rule="evenodd" clip-rule="evenodd" d="M6.9999 15.8999C7.41655 15.8999 7.79744 16.1353 7.98377 16.508L10.9838 22.508C11.2555 23.0513 11.0352 23.7121 10.4918 23.9838C9.94846 24.2555 9.28772 24.0352 9.01603 23.4918L6.9999 19.4596L4.98377 23.4918C4.71208 24.0352 4.05134 24.2555 3.50796 23.9838C2.96459 23.7121 2.74434 23.0513 3.01603 22.508L6.01603 16.508C6.20236 16.1353 6.58325 15.8999 6.9999 15.8999Z" fill="#333333"/>
</svg>
