<svg width="48" height="48" viewBox="0 0 48 48" fill="none" xmlns="http://www.w3.org/2000/svg">
<circle cx="18.5" cy="18.5" r="16.5" fill="#F8D249"/>
<path fill-rule="evenodd" clip-rule="evenodd" d="M29.9999 31.8999C30.6074 31.8999 31.0999 32.3924 31.0999 32.9999V39.4999C31.0999 40.1074 30.6074 40.5999 29.9999 40.5999C29.3924 40.5999 28.8999 40.1074 28.8999 39.4999V32.9999C28.8999 32.3924 29.3924 31.8999 29.9999 31.8999Z" fill="#333333"/>
<path fill-rule="evenodd" clip-rule="evenodd" d="M26.4389 34.2122C26.874 34.6363 26.8828 35.3327 26.4588 35.7677C25.6142 36.6341 25.1 37.8039 25.1 39.0913C25.1 41.7312 27.2778 43.8999 30 43.8999C32.7221 43.8999 34.9 41.7312 34.9 39.0913C34.9 37.8039 34.3857 36.6341 33.5411 35.7677C33.1171 35.3327 33.1259 34.6363 33.561 34.2122C33.996 33.7882 34.6924 33.797 35.1165 34.2321C36.342 35.4892 37.1 37.2027 37.1 39.0913C37.1 42.9779 33.9052 46.0999 30 46.0999C26.0947 46.0999 22.9 42.9779 22.9 39.0913C22.9 37.2027 23.6579 35.4892 24.8834 34.2321C25.3075 33.797 26.0039 33.7882 26.4389 34.2122Z" fill="#333333"/>
<path fill-rule="evenodd" clip-rule="evenodd" d="M10.9 38.9999V21.9999H13.1V38.8999H24V41.0999H13C11.8402 41.0999 10.9 40.1597 10.9 38.9999ZM37.1 21.9999V30.9999C37.1 31.6074 36.6075 32.0999 36 32.0999C35.3924 32.0999 34.9 31.6074 34.9 30.9999V21.9999H37.1Z" fill="#333333"/>
<path fill-rule="evenodd" clip-rule="evenodd" d="M23.3246 11.1316C23.7218 10.8227 24.2781 10.8227 24.6753 11.1316L42.6753 25.1316C43.1548 25.5046 43.2412 26.1957 42.8682 26.6752C42.4953 27.1548 41.8042 27.2412 41.3246 26.8682L24 13.3935L6.67529 26.8682C6.19575 27.2412 5.50464 27.1548 5.13167 26.6752C4.75869 26.1957 4.84508 25.5046 5.32462 25.1316L23.3246 11.1316Z" fill="#333333"/>
<path fill-rule="evenodd" clip-rule="evenodd" d="M24 4.0999C20.2261 4.0999 16.9848 5.58419 15.1314 7.72072C14.7333 8.17962 14.0385 8.22892 13.5796 7.83082C13.1207 7.43273 13.0714 6.73799 13.4695 6.27909C15.8008 3.59167 19.6861 1.8999 24 1.8999C28.314 1.8999 32.1992 3.59167 34.5306 6.27909C34.9286 6.73799 34.8793 7.43273 34.4204 7.83082C33.9615 8.22892 33.2668 8.17962 32.8687 7.72072C31.0153 5.58419 27.774 4.0999 24 4.0999Z" fill="#333333"/>
<path fill-rule="evenodd" clip-rule="evenodd" d="M24 9.0999C22.0223 9.0999 20.2433 9.77375 18.9304 10.8505C18.4606 11.2357 17.7675 11.1672 17.3823 10.6974C16.9971 10.2277 17.0656 9.53458 17.5353 9.14934C19.2493 7.74371 21.5236 6.8999 24 6.8999C26.6124 6.8999 29.0006 7.83903 30.743 9.3869C31.1972 9.79038 31.2383 10.4856 30.8348 10.9398C30.4314 11.394 29.7361 11.4351 29.2819 11.0316C27.952 9.85016 26.087 9.0999 24 9.0999Z" fill="#333333"/>
</svg>
