<svg width="48" height="48" viewBox="0 0 48 48" fill="none" xmlns="http://www.w3.org/2000/svg">
<circle cx="18.5" cy="29.5" r="16.5" fill="#F8D249"/>
<path fill-rule="evenodd" clip-rule="evenodd" d="M28.1999 21.1999V36.7999H43.7999V21.1999H28.1999ZM26.9999 18.9999C26.4476 18.9999 25.9999 19.4476 25.9999 19.9999V37.9999C25.9999 38.5522 26.4476 38.9999 26.9999 38.9999H44.9999C45.5522 38.9999 45.9999 38.5522 45.9999 37.9999V19.9999C45.9999 19.4476 45.5522 18.9999 44.9999 18.9999H26.9999Z" fill="#333333"/>
<path fill-rule="evenodd" clip-rule="evenodd" d="M37.0999 4.9999C37.0999 3.8401 36.1597 2.8999 34.9999 2.8999H11.9999C10.8401 2.8999 9.8999 3.8401 9.8999 4.9999V27.9999C9.8999 29.1597 10.8401 30.0999 11.9999 30.0999H27.1764V27.8999H12.0999V5.0999H34.8999V20.1764H37.0999V4.9999Z" fill="#333333"/>
<path fill-rule="evenodd" clip-rule="evenodd" d="M20.7364 15.7917L34.7364 29.2917C35.1737 29.7134 35.87 29.7008 36.2917 29.2635C36.7134 28.8261 36.7008 28.1298 36.2635 27.7081L22.2635 14.2081L20.7364 15.7917Z" fill="#333333"/>
<path fill-rule="evenodd" clip-rule="evenodd" d="M19.3414 12.9815C19.5843 12.7373 19.9276 12.621 20.2689 12.6672L26.6476 13.5312C27.2496 13.6127 27.6715 14.1669 27.59 14.7689C27.5084 15.3709 26.9543 15.7928 26.3523 15.7113L21.4129 15.0423L22.0892 19.8466C22.1738 20.4482 21.7548 21.0045 21.1532 21.0892C20.5516 21.1738 19.9953 20.7548 19.9106 20.1532L19.032 13.9106C18.984 13.5695 19.0985 13.2256 19.3414 12.9815Z" fill="#333333"/>
</svg>
