<svg width="166" height="30" viewBox="0 0 166 30" fill="none" xmlns="http://www.w3.org/2000/svg">
<path opacity="0.8" d="M10.4158 7.36101C12.2761 7.36101 13.9808 8.02188 15.3062 9.11401L17.1075 7.00429C15.2965 5.50864 12.9623 4.60538 10.4164 4.60538C4.67257 4.60538 0 9.19681 0 14.8399C0 20.4843 4.67289 25.0757 10.4171 25.0738C12.9629 25.0738 15.2968 24.1706 17.1078 22.6749L15.3065 20.5652C13.9383 21.6985 12.206 22.3195 10.4164 22.3182C6.21972 22.3182 2.80484 18.9635 2.80484 14.8399C2.80451 10.7167 6.21972 7.36005 10.4171 7.36101H10.4158ZM68.0739 5.19651H62.4656C62.0939 5.19659 61.7374 5.34172 61.4746 5.59997C61.2117 5.85822 61.064 6.20846 61.064 6.57369V23.1058C61.0642 23.471 61.212 23.8212 61.4747 24.0795C61.7375 24.3377 62.0939 24.483 62.4656 24.4833H68.0743C73.4865 24.4833 77.8891 20.1572 77.8891 14.8396C77.8891 9.52136 73.4872 5.19524 68.073 5.19651H68.0743H68.0739ZM68.0739 21.7287H63.8678V7.95182H68.0743C71.94 7.95182 75.0833 11.0431 75.0833 14.8406C75.0849 18.6405 71.94 21.7277 68.073 21.7287H68.0743H68.0739ZM85.4812 6.57432V23.1065C85.4816 23.4717 85.6294 23.8218 85.8923 24.08C86.1551 24.3382 86.5115 24.4834 86.8832 24.4837H98.568V21.7287H88.2861V16.2174H94.829V13.4624H88.2858V7.9515H98.5677V5.19651H86.8832C86.6991 5.19634 86.5169 5.23186 86.3468 5.30102C86.1767 5.37019 86.0222 5.47165 85.8922 5.59958C85.7621 5.72751 85.659 5.87941 85.5887 6.04656C85.5185 6.21372 85.4825 6.39285 85.4829 6.57369H85.4812V6.57432ZM127.924 6.57432V23.1065C127.924 23.4717 128.072 23.8218 128.335 24.08C128.598 24.3382 128.954 24.4834 129.326 24.4837H141.01V21.7287H130.728V16.2174H137.271V13.4624H130.728V7.9515H141.01V5.19651H129.327C129.142 5.1963 128.96 5.23178 128.79 5.30091C128.62 5.37004 128.465 5.47147 128.335 5.59939C128.205 5.72731 128.101 5.87921 128.031 6.04639C127.961 6.21357 127.924 6.39276 127.925 6.57369H127.924L127.924 6.57432ZM114.58 5.19651H108.504C108.132 5.19659 107.776 5.34172 107.513 5.59997C107.25 5.85822 107.102 6.20846 107.102 6.57369V24.4837H109.907V16.2174H114.581C117.673 16.2174 120.189 13.7453 120.189 10.7071C120.189 7.66867 117.673 5.19524 114.579 5.19651H114.58ZM114.58 13.4621H109.906V7.95213H114.58C116.126 7.95213 117.384 9.18694 117.384 10.7071C117.384 12.2273 116.126 13.4634 114.579 13.4621H114.58ZM162.932 5.19651V19.3011L151.39 5.69177C151.206 5.47413 150.958 5.31765 150.68 5.24367C150.401 5.16969 150.107 5.1818 149.836 5.27836C149.565 5.37479 149.331 5.55084 149.165 5.7826C149 6.01435 148.911 6.29056 148.911 6.57369V24.4837H151.715V10.3794L163.257 23.9881C163.441 24.2055 163.689 24.3618 163.967 24.4357C164.245 24.5096 164.539 24.4974 164.81 24.4008C165.081 24.3044 165.315 24.1284 165.48 23.8966C165.646 23.6649 165.735 23.3886 165.735 23.1055V5.19555H162.932V5.19651ZM53.0981 10.1431C53.0913 10.1074 53.0851 10.0717 53.0754 10.037C53.0695 10.016 53.0624 9.99624 53.0553 9.97554C53.0455 9.94456 53.0344 9.91396 53.0222 9.88381C53.0135 9.86279 53.0034 9.84241 52.9937 9.82234C52.9803 9.79383 52.9657 9.76588 52.9499 9.73858C52.9386 9.71851 52.9256 9.6994 52.9133 9.67997C52.8662 9.60833 52.8119 9.54153 52.7512 9.4806C52.7344 9.46403 52.7175 9.44715 52.6994 9.43091C52.6761 9.41001 52.6518 9.39013 52.6268 9.37135C52.6073 9.3567 52.5885 9.34173 52.5684 9.32804C52.561 9.32294 52.5548 9.31689 52.547 9.31211L38.8768 0.357288C38.6658 0.218884 38.4177 0.14502 38.164 0.14502C37.9103 0.14502 37.6622 0.218884 37.4512 0.357288L23.7803 9.31179C23.7726 9.31657 23.7664 9.32262 23.7589 9.32772C23.7388 9.34173 23.72 9.35638 23.7006 9.37071C23.6562 9.40359 23.6147 9.44002 23.5765 9.47964C23.5148 9.54032 23.4603 9.60763 23.4141 9.68029C23.4014 9.69972 23.3891 9.71851 23.3774 9.73889C23.3612 9.76629 23.3473 9.79431 23.334 9.82202C23.3243 9.84241 23.3139 9.86279 23.3051 9.88349C23.2928 9.91364 23.2817 9.94423 23.2718 9.97522C23.2653 9.99592 23.2578 10.016 23.2523 10.0348C23.2426 10.0695 23.2361 10.1048 23.2296 10.1408C23.226 10.159 23.2215 10.1768 23.2192 10.1953C23.2118 10.25 23.208 10.3051 23.2079 10.3603V19.3173C23.2079 19.3727 23.2118 19.4282 23.2199 19.4823C23.2228 19.5021 23.228 19.518 23.2319 19.5371C23.2384 19.5728 23.2442 19.6081 23.2562 19.6438C23.2617 19.6635 23.2682 19.6836 23.2763 19.7053C23.2863 19.7371 23.2964 19.7686 23.3087 19.7976C23.3171 19.8174 23.3288 19.8371 23.3366 19.8569C23.3728 19.9346 23.4189 20.0076 23.4737 20.0741C23.4876 20.0938 23.5019 20.1097 23.5181 20.1289C23.5385 20.1524 23.5583 20.1763 23.5823 20.1973C23.5988 20.2133 23.6147 20.2327 23.6348 20.2448C23.6581 20.2645 23.6834 20.2843 23.7074 20.305C23.7269 20.3209 23.7476 20.3327 23.7638 20.348C23.7713 20.3518 23.7758 20.3598 23.7839 20.3636L37.4512 29.3229C37.6671 29.4656 37.9147 29.5369 38.1643 29.5356C38.4181 29.5351 38.6661 29.4613 38.8774 29.3232L52.5483 20.368C52.5558 20.3636 52.5623 20.3579 52.5694 20.3528C52.5898 20.3387 52.6086 20.3241 52.6277 20.3094C52.653 20.2903 52.6777 20.27 52.701 20.2496C52.7185 20.234 52.7353 20.2171 52.7525 20.2005C52.7912 20.162 52.8271 20.1208 52.8598 20.0773C52.8922 20.0337 52.9225 19.9888 52.9506 19.9425C52.9671 19.9151 52.9814 19.8868 52.995 19.8585C53.0047 19.8381 53.0144 19.818 53.0235 19.7973C53.0357 19.7669 53.0467 19.7361 53.0566 19.7049C53.0634 19.6846 53.0705 19.6645 53.0767 19.6438C53.0861 19.6088 53.0926 19.5734 53.0994 19.5377C53.1026 19.5196 53.1075 19.5017 53.1091 19.4833C53.1165 19.4285 53.1208 19.374 53.1208 19.318V10.3628C53.1204 10.3077 53.1166 10.2526 53.1094 10.1978C53.1062 10.1784 53.1 10.1625 53.0961 10.1431H53.0981ZM38.1637 17.828L33.6179 14.8406L38.1637 11.8524L42.7102 14.8406L38.1637 17.828ZM36.8788 9.65863L31.306 13.321L26.8079 10.3644L36.8791 3.76742V9.65863H36.8788ZM28.9942 14.8399L25.779 16.9531V12.7267L28.9946 14.8399H28.9942ZM31.306 16.3607L36.8788 20.0228V25.9134L26.8075 19.3157L31.306 16.3595V16.3604V16.3607ZM39.4492 20.0218L45.022 16.3598L49.5205 19.3161L39.4492 25.9131V20.0218ZM47.3338 14.8409L50.5493 12.7273V16.9538L47.3338 14.8399V14.8409ZM45.022 13.321L39.4492 9.65895V3.76742L49.5205 10.3644L45.022 13.321Z" fill="#333333"/>
</svg>
