<svg width="166" height="39" viewBox="0 0 166 39" fill="none" xmlns="http://www.w3.org/2000/svg">
<path opacity="0.8" d="M50.6995 16.1197C52.5987 16.1197 54.1382 14.6675 54.1382 12.8763C54.1382 11.0849 52.5987 9.63298 50.6995 9.63298C48.8003 9.63298 47.2609 11.0849 47.2609 12.8763C47.2609 14.6675 48.8003 16.1197 50.6995 16.1197ZM164.185 27.2011C163.662 26.8542 163.258 26.7968 162.923 27.4703C157.147 39.2653 147.415 33.3794 148.381 33.8974C150.54 32.9663 156.218 28.6726 155.36 22.7439C154.839 19.1207 151.541 17.5135 148.04 18.089C141.93 19.0935 139.682 25.3082 140.826 30.8102C141.026 31.7552 141.384 32.5344 141.742 33.2978C134.837 38.5927 132.094 28.558 131.783 27.3588C131.771 27.2946 137.115 23.0944 138.601 13.0857C140.159 2.5959 136.61 0.68589 132.981 0.745482C126.266 0.855804 124.452 14.0856 126.889 25.1117C126.685 25.1618 125.735 25.6581 124.208 25.7137C123.11 22.4539 118.415 19.5965 117.186 20.6976C114.111 23.452 117.932 28.837 120.62 29.2593C119.005 38.6385 108.906 36.3156 110.786 24.565C114.075 18.8059 116.576 10.2427 116.13 5.0731C115.972 3.24286 114.537 0.790711 111.291 0.91234C105.049 1.14521 104.37 14.3787 105.102 23.771C105.066 23.5397 104.718 24.9121 102.16 25.5945C101.555 22.4276 96.147 19.2487 94.874 20.777C92.4909 23.6375 96.6209 28.7376 98.5771 29.0934C96.9622 38.4723 86.8627 36.1494 88.7428 24.3987C92.0317 18.64 94.5327 10.0767 94.0864 4.90716C93.9283 3.07661 92.4935 0.624464 89.2477 0.745788C83.0053 0.978961 82.3267 14.2124 83.0585 23.6048C83.0219 23.3698 82.6663 24.7874 80.0039 25.4585C79.9147 21.3497 74.4871 19.4657 73.1833 20.7767C70.8595 23.1137 73.7155 27.9086 76.3575 29.0934C74.7425 38.4723 64.6431 36.1494 66.5231 24.3987C69.812 18.64 72.3134 10.0767 71.8668 4.90716C71.709 3.07661 70.2739 0.624464 67.0281 0.745788C60.786 0.978961 60.2837 14.8777 61.0155 24.2698C58.9594 32.5763 52.0643 42.9496 52.9601 22.1697C53.0485 20.7119 53.1451 20.1585 52.3744 19.6127C51.7969 19.1885 50.4837 19.3927 49.7658 19.4095C48.8933 19.4425 48.6746 19.9238 48.4817 20.6514C48.0325 22.5303 47.9518 24.3517 47.8877 26.8368C47.8455 27.9993 47.7467 28.5418 47.2719 30.1269C46.7977 31.7118 44.0925 34.6086 42.6114 34.1242C40.5566 33.458 41.2307 27.9883 41.6158 24.2303C41.9366 21.2605 40.9092 19.9269 38.2769 19.4419C36.7359 19.139 35.7996 19.1855 34.1946 18.7084C32.6769 18.2574 32.3337 15.5503 29.0966 16.4525C27.3261 16.9463 28.4643 20.4837 28.0388 23.1054C25.9467 36.0021 21.5938 36.3563 19.5744 30.0915C28.6695 9.08717 22.2054 0.806602 18.4216 0.806602C14.4806 0.806602 9.97565 3.36632 11.8833 19.7441C10.9557 19.4889 10.6705 19.3514 9.65512 19.3514C3.91248 19.3514 0 23.7288 0 29.1288C0 34.5288 3.9128 38.9065 9.65544 38.9065C13.0455 38.9065 15.4256 37.4528 17.2283 35.2039C18.4044 36.7921 19.8366 38.931 22.4556 38.8347C30.2621 38.5481 32.5324 23.4486 32.8004 22.6064C33.6349 22.7277 34.4244 22.9572 35.1951 23.0785C36.4792 23.2604 36.5725 23.7395 36.5434 24.9574C36.2031 35.2268 38.2128 38.8225 42.7715 38.8225C45.3114 38.8225 47.5752 36.4694 49.1348 34.7867C50.2996 37.0537 52.1557 38.7531 54.6457 38.8222C60.6794 38.9637 62.9895 29.8956 62.7789 31.0889C62.6136 32.0253 64.7364 38.7711 70.948 38.7956C78.6423 38.8262 80.0726 30.8475 80.243 29.5111C80.2644 29.2453 80.2738 29.2728 80.243 29.5111L80.2372 29.5921C82.6799 29.1637 83.9403 27.9287 83.9403 27.9287C83.9403 27.9287 85.9017 38.9197 93.1673 38.7959C100.712 38.6669 102.135 31.4547 102.322 30.0484C102.346 29.7147 102.361 29.7538 102.322 30.0484C102.321 30.0621 102.32 30.0759 102.319 30.0896C105.22 29.0943 105.984 28.0953 105.984 28.0953C105.984 28.0953 107.543 38.8677 115.211 38.9618C122.044 39.0462 124.576 32.448 124.591 29.6862C125.744 29.6978 127.876 29.0414 127.826 29.0041C127.826 29.0041 130.329 38.4228 137.318 38.9065C140.6 39.1336 143.062 37.1652 144.465 36.2674C147.763 38.7858 158.745 42.0026 165.68 30.9169C166.658 29.3259 164.554 27.4465 164.185 27.2011ZM9.37834 35.2497C6.02785 35.2497 3.87942 32.3285 3.87942 29.1786C3.87942 26.0291 5.85154 23.1079 9.20203 23.1079C10.7097 23.1079 11.5485 23.2643 12.7227 24.2273C12.9356 25.0185 13.5391 26.8435 13.8327 27.6723C14.2262 28.7813 14.6942 29.7254 15.166 30.7528C14.4919 33.388 12.2819 35.2497 9.37834 35.2497ZM17.5429 24.3199C17.4036 24.1105 17.4328 24.2392 17.2769 24.0415C16.6627 22.4661 15.4791 18.9498 15.342 14.9559C15.1871 10.4379 15.9857 5.14217 18.3399 5.14217C19.9351 5.14217 21.6304 15.8749 17.5426 24.3199H17.5429ZM64.7186 19.6124C64.3407 16.9314 64.3209 4.97928 67.3638 5.30842C69.0439 5.95018 66.2985 17.2284 64.7186 19.6124ZM86.9382 19.6124C86.5603 16.9314 86.5406 4.97928 89.5835 5.30842C91.2636 5.95018 88.5182 17.2284 86.9382 19.6124ZM108.982 19.7789C108.603 17.0976 108.584 5.14553 111.626 5.47466C113.307 6.11643 110.561 17.3949 108.982 19.7789ZM133.317 4.60889C136.099 4.33691 135.984 15.7927 130.4 23.025C129.68 20.4109 128.576 5.50644 133.317 4.60859V4.60889ZM145.011 29.2593C144.117 25.0032 146.426 22.2079 148.806 21.9013C149.638 21.776 150.844 22.2843 151.084 23.2344C151.479 25.0249 151.027 27.6809 145.7 31.0507C145.707 31.0795 145.21 30.2073 145.011 29.2593H145.011Z" fill="#333333"/>
</svg>
