<svg width="24" height="24" viewBox="0 0 24 24" fill="none" xmlns="http://www.w3.org/2000/svg">
<path fill-rule="evenodd" clip-rule="evenodd" d="M5.54316 11.3367L5.53218 11.3267C5.5192 11.3147 5.49595 11.2928 5.46485 11.2614C5.4023 11.1982 5.31014 11.0989 5.20689 10.968C4.99693 10.7018 4.76164 10.3306 4.62012 9.8872C4.48207 9.45465 4.43084 8.94908 4.5844 8.37347C4.7391 7.79355 5.12223 7.06621 5.97485 6.22909C7.63879 4.59539 8.97257 4.58189 9.82357 4.80706C10.2917 4.93093 10.6796 5.14668 10.9538 5.3371C11.0891 5.4311 11.1914 5.51524 11.2561 5.57195C11.2876 5.59968 11.3097 5.62044 11.3218 5.63205L16.8386 11.7832C17.2562 12.2489 17.9722 12.2878 18.4379 11.8702C18.9036 11.4525 18.9425 10.7365 18.5249 10.2708L12.9869 4.09593C12.9786 4.0867 12.9702 4.07761 12.9616 4.06865L12.1437 4.85213C12.9616 4.06865 12.9611 4.06816 12.9606 4.06765L12.9596 4.06657L12.9573 4.06417L12.9517 4.0585L12.9371 4.04366C12.9258 4.03228 12.9112 4.01791 12.8936 4.00092C12.8583 3.96695 12.8104 3.92227 12.7504 3.8696C12.6307 3.76454 12.4611 3.62604 12.2459 3.47663C11.8191 3.1802 11.1918 2.82597 10.403 2.61724C8.73996 2.17722 6.59258 2.44812 4.38789 4.61275C3.30619 5.67478 2.6748 6.7436 2.39576 7.78962C2.11557 8.83994 2.21139 9.79011 2.46218 10.5759C2.70949 11.3508 3.10482 11.9606 3.42829 12.3707C3.59174 12.578 3.74198 12.7408 3.85517 12.8551C3.91193 12.9124 3.95987 12.9581 3.99612 12.9915C4.01427 13.0082 4.02954 13.022 4.04158 13.0326L4.04954 13.0396L11.0502 19.3733C11.0566 19.3791 11.063 19.3848 11.0695 19.3905L11.81 18.5335C11.0695 19.3905 11.0692 19.3902 11.0695 19.3905L11.071 19.3917L11.0728 19.3932L11.0771 19.3969L11.0889 19.407C11.0982 19.4148 11.1104 19.4249 11.1252 19.4371C11.155 19.4614 11.1957 19.4941 11.2465 19.5332C11.348 19.6113 11.4912 19.7163 11.6688 19.8331C12.0196 20.0638 12.5268 20.355 13.1291 20.5699C14.3424 21.0029 16.1194 21.1648 17.6162 19.668C18.3357 18.9486 18.6866 18.1328 18.7443 17.3046C18.7999 16.5054 18.5771 15.7832 18.3074 15.2163C18.0363 14.6466 17.6906 14.1764 17.4231 13.8558C17.2873 13.6931 17.1665 13.5627 17.0771 13.4706C17.0323 13.4245 16.9951 13.3877 16.9674 13.3608C16.9597 13.3533 16.9527 13.3466 16.9464 13.3407L12.6283 8.82821C12.1958 8.37629 11.4789 8.36051 11.027 8.79298C10.575 9.22544 10.5593 9.94238 10.9917 10.3943L15.3298 14.9276C15.3456 14.9441 15.3618 14.9601 15.3786 14.9756C15.3794 14.9763 15.3802 14.9771 15.381 14.9779L15.3796 14.9765L15.3786 14.9756L15.3909 14.9874C15.4033 14.9994 15.4243 15.0201 15.4521 15.0487C15.508 15.1062 15.5898 15.1943 15.6838 15.307C15.876 15.5373 16.0986 15.8463 16.262 16.1896C16.4267 16.5358 16.5045 16.8603 16.4846 17.1473C16.4666 17.4054 16.3657 17.7152 16.0145 18.0663C15.3702 18.7106 14.6445 18.7057 13.8905 18.4365C13.5091 18.3004 13.1663 18.1068 12.9132 17.9404C12.7889 17.8586 12.6915 17.787 12.628 17.7381C12.5963 17.7137 12.5735 17.6953 12.5602 17.6844L12.5544 17.6796L5.56225 11.3536C5.55595 11.3479 5.54959 11.3422 5.54316 11.3367Z" fill="#F8D249"/>
</svg>
